<svg xml:space="preserve" viewBox="176.1197025766195 192.4946960352423 628.5161960309829 696.2815037180617" y="0px" x="0px" xmlns:xlink="http://www.w3.org/1999/xlink" xmlns="http://www.w3.org/2000/svg" id="Layer_1" version="1.1" style="max-height: 500px" width="628.5161960309829" height="696.2815037180617">
<g transform="translate(490.38, 540.63) scale(0.85) translate(-490.38, -540.63)">
<path d="M566.888733,247.178619 &#10;&#9;C638.491699,288.526215 709.754639,329.730286 781.104614,370.783234 &#10;&#9;C784.341187,372.645477 785.261353,374.583710 785.257507,378.154694 &#10;&#9;C785.137634,488.973022 785.115173,599.791504 785.201843,710.609924 &#10;&#9;C785.204712,714.211731 784.214111,716.152161 781.036377,717.982788 &#10;&#9;C684.921875,773.352844 588.863342,828.820251 492.860596,884.383972 &#10;&#9;C489.847015,886.128113 487.813171,886.111938 484.820526,884.380737 &#10;&#9;C388.520660,828.671143 292.168182,773.052429 195.759720,717.531128 &#10;&#9;C193.000137,715.941833 192.365845,714.248413 192.369095,711.307068 &#10;&#9;C192.491455,599.988770 192.543686,488.670380 192.495483,377.352051 &#10;&#9;C192.494125,374.246307 193.494919,372.698364 196.112549,371.188721 &#10;&#9;C292.488831,315.608643 388.827454,259.963226 485.109619,204.220322 &#10;&#9;C487.988098,202.553833 489.976227,202.701645 492.715424,204.297455 &#10;&#9;C517.286377,218.612152 541.937683,232.788925 566.888733,247.178619 &#10;M708.935791,351.518066 &#10;&#9;C637.218933,310.104950 565.483154,268.724487 493.840210,227.183899 &#10;&#9;C490.189178,225.066925 487.620728,225.028137 484.001160,227.124878 &#10;&#9;C394.784088,278.806793 305.507294,330.385742 216.180298,381.877502 &#10;&#9;C213.092667,383.657349 211.814957,385.411804 211.818542,389.127289 &#10;&#9;C211.918304,492.610229 211.895752,596.093323 211.757477,699.576233 &#10;&#9;C211.752594,703.230103 212.861069,705.122253 215.988892,706.923523 &#10;&#9;C305.624207,758.545532 395.210907,810.252075 484.737549,862.062256 &#10;&#9;C487.935638,863.912964 490.142822,863.712158 493.211151,861.935852 &#10;&#9;C582.729309,810.111877 672.296143,758.371887 761.904785,706.704468 &#10;&#9;C764.813904,705.027161 766.017090,703.302795 766.013855,699.795166 &#10;&#9;C765.919128,596.145508 765.933716,492.495819 766.073608,388.846283 &#10;&#9;C766.078430,385.273651 764.736633,383.619659 761.890137,382.000702 &#10;&#9;C744.399231,372.052917 726.998901,361.945831 708.935791,351.518066 &#10;z" stroke="none" opacity="1.000000" fill="#FCFCFC"/>
<path d="M1331.004517,818.930542 &#10;&#9;C1272.598389,785.220886 1214.532959,751.652405 1156.392456,718.214600 &#10;&#9;C1153.125977,716.335938 1151.843628,714.426575 1151.848755,710.519531 &#10;&#9;C1151.992310,599.707947 1151.998901,488.896179 1151.913330,378.084503 &#10;&#9;C1151.910522,374.442749 1153.088501,372.596924 1156.243408,370.778656 &#10;&#9;C1251.988281,315.595703 1347.678833,260.318268 1443.289429,204.903061 &#10;&#9;C1447.150879,202.664963 1449.767822,202.858261 1453.508301,205.023727 &#10;&#9;C1549.002197,260.308197 1644.562866,315.477112 1740.179932,370.548309 &#10;&#9;C1743.619751,372.529449 1744.918701,374.577087 1744.913208,378.611115 &#10;&#9;C1744.763428,489.089417 1744.738037,599.567932 1744.829224,710.046326 &#10;&#9;C1744.832520,714.037476 1743.613770,716.158386 1740.160889,718.148499 &#10;&#9;C1644.417236,773.332825 1548.731934,828.618347 1453.097168,883.991150 &#10;&#9;C1449.692505,885.962402 1447.245361,886.164490 1443.700195,884.098328 &#10;&#9;C1406.315186,862.308777 1368.804810,840.733887 1331.004517,818.930542 &#10;M1171.164673,625.500000 &#10;&#9;C1171.159790,650.329468 1171.223999,675.159302 1171.066895,699.987793 &#10;&#9;C1171.046021,703.276672 1172.098633,704.959412 1174.924927,706.587708 &#10;&#9;C1264.770874,758.347656 1354.570557,810.188110 1444.313354,862.126709 &#10;&#9;C1447.335693,863.875916 1449.423828,863.758606 1452.358398,862.060486 &#10;&#9;C1541.817505,810.293518 1631.319214,758.600098 1720.881592,707.012268 &#10;&#9;C1724.213989,705.092896 1725.331421,703.060791 1725.328125,699.234802 &#10;&#9;C1725.241699,596.084106 1725.272583,492.933289 1725.414429,389.782684 &#10;&#9;C1725.419922,385.815979 1724.264160,383.673462 1720.756104,381.654144 &#10;&#9;C1631.756470,330.424988 1542.816772,279.091553 1453.964722,227.607193 &#10;&#9;C1449.848022,225.221848 1447.028442,225.056274 1442.839600,227.485275 &#10;&#9;C1353.859253,279.081573 1264.791992,330.528046 1175.658936,381.859894 &#10;&#9;C1172.090942,383.914734 1171.134277,386.154541 1171.138794,390.036255 &#10;&#9;C1171.229126,468.190735 1171.183350,546.345398 1171.164673,625.500000 &#10;z" stroke="none" opacity="1.000000" fill="#D2BC5E"/>
<path d="M709.252075,351.704895 &#10;&#9;C726.998901,361.945831 744.399231,372.052917 761.890137,382.000702 &#10;&#9;C764.736633,383.619659 766.078430,385.273651 766.073608,388.846283 &#10;&#9;C765.933716,492.495819 765.919128,596.145508 766.013855,699.795166 &#10;&#9;C766.017090,703.302795 764.813904,705.027161 761.904785,706.704468 &#10;&#9;C672.296143,758.371887 582.729309,810.111877 493.211151,861.935852 &#10;&#9;C490.142822,863.712158 487.935638,863.912964 484.737549,862.062256 &#10;&#9;C395.210907,810.252075 305.624207,758.545532 215.988892,706.923523 &#10;&#9;C212.861069,705.122253 211.752594,703.230103 211.757477,699.576233 &#10;&#9;C211.895752,596.093323 211.918304,492.610229 211.818542,389.127289 &#10;&#9;C211.814957,385.411804 213.092667,383.657349 216.180298,381.877502 &#10;&#9;C305.507294,330.385742 394.784088,278.806793 484.001160,227.124878 &#10;&#9;C487.620728,225.028137 490.189178,225.066925 493.840210,227.183899 &#10;&#9;C565.483154,268.724487 637.218933,310.104950 709.252075,351.704895 &#10;M551.354309,612.880310 &#10;&#9;C533.989258,626.242126 516.539062,639.496521 499.367157,653.102173 &#10;&#9;C497.230621,654.794983 495.434113,658.337830 495.404663,661.044373 &#10;&#9;C495.169159,682.690063 495.390320,704.340820 495.487122,725.989929 &#10;&#9;C495.521820,733.746155 498.115936,736.433472 505.877228,736.496643 &#10;&#9;C515.870422,736.577942 525.864685,736.528809 535.858521,736.512756 &#10;&#9;C544.052979,736.499573 546.461304,734.115540 546.501709,725.753845 &#10;&#9;C546.559631,713.761536 546.508484,701.768738 546.526184,689.776184 &#10;&#9;C546.528503,688.200378 546.661865,686.624695 546.739807,684.935669 &#10;&#9;C547.352966,685.166260 547.707520,685.184753 547.840088,685.365784 &#10;&#9;C558.965149,700.552673 570.080688,715.746399 581.175781,730.955139 &#10;&#9;C583.504517,734.147339 586.037598,736.617371 590.493591,736.571228 &#10;&#9;C604.816528,736.422729 619.149109,736.750916 633.460327,736.315918 &#10;&#9;C636.287537,736.229980 640.310303,734.206421 641.464111,731.911377 &#10;&#9;C642.624390,729.603577 641.881592,725.155762 640.266357,722.831726 &#10;&#9;C631.132446,709.689941 621.475830,696.911865 612.016174,683.996094 &#10;&#9;C602.765442,671.365662 593.537354,658.718689 584.203979,645.948486 &#10;&#9;C602.560730,633.862366 620.551453,621.955139 638.631775,610.185547 &#10;&#9;C641.120178,608.565674 642.130493,606.862122 642.088318,603.805115 &#10;&#9;C641.897827,589.982971 641.961914,576.156433 642.031128,562.332031 &#10;&#9;C642.052063,558.152588 641.530823,554.248230 637.484314,552.041870 &#10;&#9;C633.054260,549.626282 629.670288,552.032471 626.243713,554.700562 &#10;&#9;C601.490173,573.974854 576.678162,593.174011 551.354309,612.880310 &#10;M403.382874,493.875641 &#10;&#9;C421.752258,479.648804 440.139191,465.444550 458.482056,451.183624 &#10;&#9;C465.546783,445.691040 472.742706,440.331635 479.440613,434.415405 &#10;&#9;C483.937500,430.443298 482.852264,424.589539 477.663483,421.634216 &#10;&#9;C473.230682,419.109436 468.735260,416.690643 464.220795,414.313690 &#10;&#9;C426.271484,394.332581 388.302368,374.389069 350.361450,354.392059 &#10;&#9;C341.750641,349.853699 335.848846,353.183441 335.843842,362.848175 &#10;&#9;C335.815369,417.636810 335.850555,472.425446 335.788605,527.213989 &#10;&#9;C335.783966,531.308228 336.430817,534.894836 340.373566,536.911011 &#10;&#9;C344.452209,538.996643 347.684875,536.941467 350.830109,534.500732 &#10;&#9;C368.135529,521.071716 385.465546,507.674438 403.382874,493.875641 &#10;M602.193726,515.259460 &#10;&#9;C610.552246,521.783325 618.911682,528.306030 627.268677,534.831787 &#10;&#9;C630.273071,537.177856 633.382996,538.866272 637.300659,536.893066 &#10;&#9;C641.349670,534.853699 642.012878,531.247253 642.011963,527.234070 &#10;&#9;C641.999756,472.404419 642.016785,417.574799 641.988831,362.745148 &#10;&#9;C641.984863,355.076843 639.039551,352.188385 631.424377,352.170319 &#10;&#9;C618.925293,352.140717 606.426086,352.162140 593.926941,352.162323 &#10;&#9;C582.390686,352.162476 580.487549,354.027557 580.486267,365.348053 &#10;&#9;C580.484436,381.846954 580.485779,398.345825 580.485779,414.844727 &#10;&#9;C580.485779,416.606445 580.485840,418.368195 580.485840,420.485870 &#10;&#9;C578.000549,420.485870 576.196716,420.485840 574.392944,420.485840 &#10;&#9;C552.227783,420.485840 530.062561,420.474213 507.897400,420.494995 &#10;&#9;C503.020599,420.499542 497.906677,420.372345 495.961182,426.238190 &#10;&#9;C493.979919,432.211731 498.535309,434.967102 502.296661,437.906250 &#10;&#9;C513.510010,446.668640 524.795288,455.339050 536.044250,464.055878 &#10;&#9;C557.896179,480.988983 579.742554,497.929321 602.193726,515.259460 &#10;M353.795715,556.734680 &#10;&#9;C353.174194,556.182129 352.585663,555.586182 351.925659,555.084290 &#10;&#9;C348.471069,552.457092 345.072632,549.464966 340.279724,551.997864 &#10;&#9;C335.613525,554.463867 335.812592,558.873962 335.814545,563.263977 &#10;&#9;C335.838440,617.413330 335.822418,671.562683 335.838348,725.712036 &#10;&#9;C335.840759,733.973511 338.316620,736.474792 346.508423,736.498962 &#10;&#9;C360.172516,736.539124 373.836884,736.533264 387.501007,736.500244 &#10;&#9;C394.457184,736.483398 397.065277,733.886169 397.151031,726.805664 &#10;&#9;C397.235748,719.807983 397.169800,712.808411 397.169830,705.809692 &#10;&#9;C397.169891,693.356873 397.169861,680.904053 397.169861,668.001709 &#10;&#9;C399.372009,668.001709 401.164429,668.001709 402.956879,668.001709 &#10;&#9;C425.952759,668.001709 448.948944,667.938416 471.944214,668.057312 &#10;&#9;C476.324402,668.079956 480.084869,667.228577 481.646210,662.828857 &#10;&#9;C483.167389,658.542114 481.284576,655.315735 477.695251,652.562866 &#10;&#9;C459.698395,638.760010 441.830170,624.789673 423.899597,610.900330 &#10;&#9;C400.743652,592.963196 377.571442,575.047058 353.795715,556.734680 &#10;z" stroke="none" opacity="1.000000" fill="none"/>
<path d="M1171.164795,625.000000 &#10;&#9;C1171.183350,546.345398 1171.229126,468.190735 1171.138794,390.036255 &#10;&#9;C1171.134277,386.154541 1172.090942,383.914734 1175.658936,381.859894 &#10;&#9;C1264.791992,330.528046 1353.859253,279.081573 1442.839600,227.485275 &#10;&#9;C1447.028442,225.056274 1449.848022,225.221848 1453.964722,227.607193 &#10;&#9;C1542.816772,279.091553 1631.756470,330.424988 1720.756104,381.654144 &#10;&#9;C1724.264160,383.673462 1725.419922,385.815979 1725.414429,389.782684 &#10;&#9;C1725.272583,492.933289 1725.241699,596.084106 1725.328125,699.234802 &#10;&#9;C1725.331421,703.060791 1724.213989,705.092896 1720.881592,707.012268 &#10;&#9;C1631.319214,758.600098 1541.817505,810.293518 1452.358398,862.060486 &#10;&#9;C1449.423828,863.758606 1447.335693,863.875916 1444.313354,862.126709 &#10;&#9;C1354.570557,810.188110 1264.770874,758.347656 1174.924927,706.587708 &#10;&#9;C1172.098633,704.959412 1171.046021,703.276672 1171.066895,699.987793 &#10;&#9;C1171.223999,675.159302 1171.159790,650.329468 1171.164795,625.000000 &#10;M1586.304932,617.734375 &#10;&#9;C1590.326660,615.126892 1594.557983,612.779785 1598.273804,609.791931 &#10;&#9;C1599.908325,608.477722 1601.374146,605.876953 1601.414429,603.830750 &#10;&#9;C1601.686523,590.004150 1601.586792,576.169495 1601.522095,562.337830 &#10;&#9;C1601.512817,560.362427 1601.308105,558.307861 1600.732910,556.431152 &#10;&#9;C1599.354980,551.935181 1594.637085,549.900085 1590.351074,551.899292 &#10;&#9;C1588.559448,552.735046 1586.856079,553.848022 1585.286987,555.060791 &#10;&#9;C1543.199585,587.592285 1501.139282,620.158997 1459.055908,652.695862 &#10;&#9;C1456.225342,654.884338 1454.897583,657.459167 1454.923462,661.203552 &#10;&#9;C1455.072998,682.867004 1454.983887,704.532104 1455.003296,726.196594 &#10;&#9;C1455.010010,733.655945 1457.750854,736.486206 1465.166748,736.538147 &#10;&#9;C1475.498535,736.610413 1485.831299,736.587708 1496.163452,736.545593 &#10;&#9;C1502.947021,736.517944 1505.926147,733.623657 1505.983521,726.885010 &#10;&#9;C1506.062744,717.553284 1506.003540,708.220398 1506.003662,698.888000 &#10;&#9;C1506.003662,694.334961 1506.003662,689.781921 1506.003662,684.456970 &#10;&#9;C1507.285278,685.518860 1507.877075,685.839783 1508.235840,686.330994 &#10;&#9;C1519.269165,701.439636 1530.347656,716.516418 1541.240723,731.725891 &#10;&#9;C1543.607300,735.030151 1546.353149,736.624451 1550.411011,736.595276 &#10;&#9;C1564.408936,736.494507 1578.416382,736.811890 1592.399780,736.350281 &#10;&#9;C1595.351440,736.252869 1598.949585,734.161133 1600.937988,731.856445 &#10;&#9;C1603.491577,728.896729 1601.781128,725.411926 1599.516357,722.355713 &#10;&#9;C1590.449219,710.120544 1581.522339,697.781494 1572.541870,685.482239 &#10;&#9;C1563.007812,672.424988 1553.471802,659.369385 1543.669922,645.947815 &#10;&#9;C1557.919800,636.566284 1571.845947,627.397888 1586.304932,617.734375 &#10;M1429.250854,417.319305 &#10;&#9;C1406.941650,405.632263 1384.631592,393.946991 1362.323730,382.257538 &#10;&#9;C1344.135376,372.726837 1325.973633,363.145111 1307.747559,353.687408 &#10;&#9;C1302.712402,351.074615 1297.993286,352.466309 1296.162842,357.175659 &#10;&#9;C1295.293945,359.411285 1295.202759,362.049500 1295.199097,364.506012 &#10;&#9;C1295.143188,401.832184 1295.160400,439.158478 1295.160400,476.484741 &#10;&#9;C1295.160400,493.648163 1295.134277,510.811615 1295.175171,527.974915 &#10;&#9;C1295.188599,533.619690 1297.909058,537.710999 1302.448608,537.557312 &#10;&#9;C1305.301636,537.460815 1308.481934,535.848755 1310.840698,534.037781 &#10;&#9;C1340.372070,511.364899 1369.784912,488.537598 1399.217407,465.736115 &#10;&#9;C1411.963623,455.861572 1424.735474,446.019135 1437.396240,436.036011 &#10;&#9;C1443.550903,431.182983 1443.083252,425.280029 1436.427246,421.274048 &#10;&#9;C1434.301758,419.994781 1432.063232,418.903351 1429.250854,417.319305 &#10;M1601.560059,523.328247 &#10;&#9;C1601.560059,470.838135 1601.560181,418.347992 1601.559082,365.857880 &#10;&#9;C1601.558960,364.358032 1601.639160,362.850403 1601.518066,361.359711 &#10;&#9;C1601.021973,355.242584 1598.154663,352.266357 1592.015137,352.204590 &#10;&#9;C1577.850464,352.062012 1563.681885,352.041870 1549.517822,352.216217 &#10;&#9;C1542.683105,352.300354 1540.012695,355.332733 1540.002930,362.233551 &#10;&#9;C1539.978271,379.732880 1539.994751,397.232300 1539.994751,414.731659 &#10;&#9;C1539.994751,416.520020 1539.994751,418.308380 1539.994751,420.439880 &#10;&#9;C1537.630371,420.439880 1535.821045,420.439850 1534.011719,420.439880 &#10;&#9;C1511.512573,420.439972 1489.013306,420.428528 1466.514160,420.449677 &#10;&#9;C1461.892334,420.454010 1457.258057,420.777313 1455.489502,426.126343 &#10;&#9;C1453.738770,431.420990 1457.003784,434.343140 1460.852661,437.227478 &#10;&#9;C1470.272827,444.287048 1479.491455,451.615601 1488.795776,458.829865 &#10;&#9;C1521.416138,484.122437 1554.046387,509.402466 1586.647583,534.719666 &#10;&#9;C1589.706299,537.095032 1592.923218,538.691223 1596.706909,536.923035 &#10;&#9;C1600.493530,535.153442 1601.448975,531.622925 1601.551270,527.772766 &#10;&#9;C1601.582275,526.606934 1601.558472,525.439636 1601.560059,523.328247 &#10;M1339.014160,576.504089 &#10;&#9;C1329.570190,569.220947 1320.099365,561.972168 1310.696899,554.635681 &#10;&#9;C1307.464478,552.113464 1304.355957,549.748657 1299.952637,551.994934 &#10;&#9;C1295.697266,554.165710 1295.160034,557.994812 1295.159912,562.124512 &#10;&#9;C1295.159546,616.771423 1295.146240,671.418335 1295.175537,726.065247 &#10;&#9;C1295.179565,733.512573 1297.942261,736.439148 1305.361084,736.512878 &#10;&#9;C1319.355103,736.652100 1333.351929,736.626953 1347.346558,736.522766 &#10;&#9;C1353.999390,736.473206 1356.798096,733.261536 1356.823730,725.877441 &#10;&#9;C1356.878174,710.216125 1356.840332,694.554565 1356.840454,678.893066 &#10;&#9;C1356.840454,675.433105 1356.840454,671.973206 1356.840454,668.003662 &#10;&#9;C1359.022339,668.003662 1360.805908,668.003601 1362.589478,668.003601 &#10;&#9;C1385.748413,668.003601 1408.907471,667.996338 1432.066406,668.010498 &#10;&#9;C1436.178833,668.013000 1439.816162,666.978333 1441.248901,662.711060 &#10;&#9;C1442.558716,658.810608 1441.067871,655.514893 1437.875122,653.045593 &#10;&#9;C1425.683960,643.616516 1413.447266,634.246460 1401.269043,624.800903 &#10;&#9;C1380.703979,608.850464 1360.170410,592.859253 1339.014160,576.504089 &#10;z" stroke="none" opacity="1.000000" fill="none"/>
<path d="M551.619507,612.638611 &#10;&#9;C576.678162,593.174011 601.490173,573.974854 626.243713,554.700562 &#10;&#9;C629.670288,552.032471 633.054260,549.626282 637.484314,552.041870 &#10;&#9;C641.530823,554.248230 642.052063,558.152588 642.031128,562.332031 &#10;&#9;C641.961914,576.156433 641.897827,589.982971 642.088318,603.805115 &#10;&#9;C642.130493,606.862122 641.120178,608.565674 638.631775,610.185547 &#10;&#9;C620.551453,621.955139 602.560730,633.862366 584.203979,645.948486 &#10;&#9;C593.537354,658.718689 602.765442,671.365662 612.016174,683.996094 &#10;&#9;C621.475830,696.911865 631.132446,709.689941 640.266357,722.831726 &#10;&#9;C641.881592,725.155762 642.624390,729.603577 641.464111,731.911377 &#10;&#9;C640.310303,734.206421 636.287537,736.229980 633.460327,736.315918 &#10;&#9;C619.149109,736.750916 604.816528,736.422729 590.493591,736.571228 &#10;&#9;C586.037598,736.617371 583.504517,734.147339 581.175781,730.955139 &#10;&#9;C570.080688,715.746399 558.965149,700.552673 547.840088,685.365784 &#10;&#9;C547.707520,685.184753 547.352966,685.166260 546.739807,684.935669 &#10;&#9;C546.661865,686.624695 546.528503,688.200378 546.526184,689.776184 &#10;&#9;C546.508484,701.768738 546.559631,713.761536 546.501709,725.753845 &#10;&#9;C546.461304,734.115540 544.052979,736.499573 535.858521,736.512756 &#10;&#9;C525.864685,736.528809 515.870422,736.577942 505.877228,736.496643 &#10;&#9;C498.115936,736.433472 495.521820,733.746155 495.487122,725.989929 &#10;&#9;C495.390320,704.340820 495.169159,682.690063 495.404663,661.044373 &#10;&#9;C495.434113,658.337830 497.230621,654.794983 499.367157,653.102173 &#10;&#9;C516.539062,639.496521 533.989258,626.242126 551.619507,612.638611 &#10;z" stroke="none" opacity="1.000000" fill="#FCFCFC"/>
<path d="M403.084991,494.070953 &#10;&#9;C385.465546,507.674438 368.135529,521.071716 350.830109,534.500732 &#10;&#9;C347.684875,536.941467 344.452209,538.996643 340.373566,536.911011 &#10;&#9;C336.430817,534.894836 335.783966,531.308228 335.788605,527.213989 &#10;&#9;C335.850555,472.425446 335.815369,417.636810 335.843842,362.848175 &#10;&#9;C335.848846,353.183441 341.750641,349.853699 350.361450,354.392059 &#10;&#9;C388.302368,374.389069 426.271484,394.332581 464.220795,414.313690 &#10;&#9;C468.735260,416.690643 473.230682,419.109436 477.663483,421.634216 &#10;&#9;C482.852264,424.589539 483.937500,430.443298 479.440613,434.415405 &#10;&#9;C472.742706,440.331635 465.546783,445.691040 458.482056,451.183624 &#10;&#9;C440.139191,465.444550 421.752258,479.648804 403.084991,494.070953 &#10;z" stroke="none" opacity="1.000000" fill="#FEFEFE"/>
<path d="M601.892456,515.063049 &#10;&#9;C579.742554,497.929321 557.896179,480.988983 536.044250,464.055878 &#10;&#9;C524.795288,455.339050 513.510010,446.668640 502.296661,437.906250 &#10;&#9;C498.535309,434.967102 493.979919,432.211731 495.961182,426.238190 &#10;&#9;C497.906677,420.372345 503.020599,420.499542 507.897400,420.494995 &#10;&#9;C530.062561,420.474213 552.227783,420.485840 574.392944,420.485840 &#10;&#9;C576.196716,420.485840 578.000549,420.485870 580.485840,420.485870 &#10;&#9;C580.485840,418.368195 580.485779,416.606445 580.485779,414.844727 &#10;&#9;C580.485779,398.345825 580.484436,381.846954 580.486267,365.348053 &#10;&#9;C580.487549,354.027557 582.390686,352.162476 593.926941,352.162323 &#10;&#9;C606.426086,352.162140 618.925293,352.140717 631.424377,352.170319 &#10;&#9;C639.039551,352.188385 641.984863,355.076843 641.988831,362.745148 &#10;&#9;C642.016785,417.574799 641.999756,472.404419 642.011963,527.234070 &#10;&#9;C642.012878,531.247253 641.349670,534.853699 637.300659,536.893066 &#10;&#9;C633.382996,538.866272 630.273071,537.177856 627.268677,534.831787 &#10;&#9;C618.911682,528.306030 610.552246,521.783325 601.892456,515.063049 &#10;z" stroke="none" opacity="1.000000" fill="#FDFDFD"/>
<path d="M354.100952,556.928284 &#10;&#9;C377.571442,575.047058 400.743652,592.963196 423.899597,610.900330 &#10;&#9;C441.830170,624.789673 459.698395,638.760010 477.695251,652.562866 &#10;&#9;C481.284576,655.315735 483.167389,658.542114 481.646210,662.828857 &#10;&#9;C480.084869,667.228577 476.324402,668.079956 471.944214,668.057312 &#10;&#9;C448.948944,667.938416 425.952759,668.001709 402.956879,668.001709 &#10;&#9;C401.164429,668.001709 399.372009,668.001709 397.169861,668.001709 &#10;&#9;C397.169861,680.904053 397.169891,693.356873 397.169830,705.809692 &#10;&#9;C397.169800,712.808411 397.235748,719.807983 397.151031,726.805664 &#10;&#9;C397.065277,733.886169 394.457184,736.483398 387.501007,736.500244 &#10;&#9;C373.836884,736.533264 360.172516,736.539124 346.508423,736.498962 &#10;&#9;C338.316620,736.474792 335.840759,733.973511 335.838348,725.712036 &#10;&#9;C335.822418,671.562683 335.838440,617.413330 335.814545,563.263977 &#10;&#9;C335.812592,558.873962 335.613525,554.463867 340.279724,551.997864 &#10;&#9;C345.072632,549.464966 348.471069,552.457092 351.925659,555.084290 &#10;&#9;C352.585663,555.586182 353.174194,556.182129 354.100952,556.928284 &#10;z" stroke="none" opacity="1.000000" fill="#FEFEFE"/>
<path d="M1586.038574,617.981934 &#10;&#9;C1571.845947,627.397888 1557.919800,636.566284 1543.669922,645.947815 &#10;&#9;C1553.471802,659.369385 1563.007812,672.424988 1572.541870,685.482239 &#10;&#9;C1581.522339,697.781494 1590.449219,710.120544 1599.516357,722.355713 &#10;&#9;C1601.781128,725.411926 1603.491577,728.896729 1600.937988,731.856445 &#10;&#9;C1598.949585,734.161133 1595.351440,736.252869 1592.399780,736.350281 &#10;&#9;C1578.416382,736.811890 1564.408936,736.494507 1550.411011,736.595276 &#10;&#9;C1546.353149,736.624451 1543.607300,735.030151 1541.240723,731.725891 &#10;&#9;C1530.347656,716.516418 1519.269165,701.439636 1508.235840,686.330994 &#10;&#9;C1507.877075,685.839783 1507.285278,685.518860 1506.003662,684.456970 &#10;&#9;C1506.003662,689.781921 1506.003662,694.334961 1506.003662,698.888000 &#10;&#9;C1506.003540,708.220398 1506.062744,717.553284 1505.983521,726.885010 &#10;&#9;C1505.926147,733.623657 1502.947021,736.517944 1496.163452,736.545593 &#10;&#9;C1485.831299,736.587708 1475.498535,736.610413 1465.166748,736.538147 &#10;&#9;C1457.750854,736.486206 1455.010010,733.655945 1455.003296,726.196594 &#10;&#9;C1454.983887,704.532104 1455.072998,682.867004 1454.923462,661.203552 &#10;&#9;C1454.897583,657.459167 1456.225342,654.884338 1459.055908,652.695862 &#10;&#9;C1501.139282,620.158997 1543.199585,587.592285 1585.286987,555.060791 &#10;&#9;C1586.856079,553.848022 1588.559448,552.735046 1590.351074,551.899292 &#10;&#9;C1594.637085,549.900085 1599.354980,551.935181 1600.732910,556.431152 &#10;&#9;C1601.308105,558.307861 1601.512817,560.362427 1601.522095,562.337830 &#10;&#9;C1601.586792,576.169495 1601.686523,590.004150 1601.414429,603.830750 &#10;&#9;C1601.374146,605.876953 1599.908325,608.477722 1598.273804,609.791931 &#10;&#9;C1594.557983,612.779785 1590.326660,615.126892 1586.038574,617.981934 &#10;z" stroke="none" opacity="1.000000" fill="#D3BD5E"/>
<path d="M1429.563599,417.522644 &#10;&#9;C1432.063232,418.903351 1434.301758,419.994781 1436.427246,421.274048 &#10;&#9;C1443.083252,425.280029 1443.550903,431.182983 1437.396240,436.036011 &#10;&#9;C1424.735474,446.019135 1411.963623,455.861572 1399.217407,465.736115 &#10;&#9;C1369.784912,488.537598 1340.372070,511.364899 1310.840698,534.037781 &#10;&#9;C1308.481934,535.848755 1305.301636,537.460815 1302.448608,537.557312 &#10;&#9;C1297.909058,537.710999 1295.188599,533.619690 1295.175171,527.974915 &#10;&#9;C1295.134277,510.811615 1295.160400,493.648163 1295.160400,476.484741 &#10;&#9;C1295.160400,439.158478 1295.143188,401.832184 1295.199097,364.506012 &#10;&#9;C1295.202759,362.049500 1295.293945,359.411285 1296.162842,357.175659 &#10;&#9;C1297.993286,352.466309 1302.712402,351.074615 1307.747559,353.687408 &#10;&#9;C1325.973633,363.145111 1344.135376,372.726837 1362.323730,382.257538 &#10;&#9;C1384.631592,393.946991 1406.941650,405.632263 1429.563599,417.522644 &#10;z" stroke="none" opacity="1.000000" fill="#D3BD5E"/>
<path d="M1601.559814,523.800659 &#10;&#9;C1601.558472,525.439636 1601.582275,526.606934 1601.551270,527.772766 &#10;&#9;C1601.448975,531.622925 1600.493530,535.153442 1596.706909,536.923035 &#10;&#9;C1592.923218,538.691223 1589.706299,537.095032 1586.647583,534.719666 &#10;&#9;C1554.046387,509.402466 1521.416138,484.122437 1488.795776,458.829865 &#10;&#9;C1479.491455,451.615601 1470.272827,444.287048 1460.852661,437.227478 &#10;&#9;C1457.003784,434.343140 1453.738770,431.420990 1455.489502,426.126343 &#10;&#9;C1457.258057,420.777313 1461.892334,420.454010 1466.514160,420.449677 &#10;&#9;C1489.013306,420.428528 1511.512573,420.439972 1534.011719,420.439880 &#10;&#9;C1535.821045,420.439850 1537.630371,420.439880 1539.994751,420.439880 &#10;&#9;C1539.994751,418.308380 1539.994751,416.520020 1539.994751,414.731659 &#10;&#9;C1539.994751,397.232300 1539.978271,379.732880 1540.002930,362.233551 &#10;&#9;C1540.012695,355.332733 1542.683105,352.300354 1549.517822,352.216217 &#10;&#9;C1563.681885,352.041870 1577.850464,352.062012 1592.015137,352.204590 &#10;&#9;C1598.154663,352.266357 1601.021973,355.242584 1601.518066,361.359711 &#10;&#9;C1601.639160,362.850403 1601.558960,364.358032 1601.559082,365.857880 &#10;&#9;C1601.560181,418.347992 1601.560059,470.838135 1601.559814,523.800659 &#10;z" stroke="none" opacity="1.000000" fill="#D2BD5E"/>
<path d="M1339.318848,576.694702 &#10;&#9;C1360.170410,592.859253 1380.703979,608.850464 1401.269043,624.800903 &#10;&#9;C1413.447266,634.246460 1425.683960,643.616516 1437.875122,653.045593 &#10;&#9;C1441.067871,655.514893 1442.558716,658.810608 1441.248901,662.711060 &#10;&#9;C1439.816162,666.978333 1436.178833,668.013000 1432.066406,668.010498 &#10;&#9;C1408.907471,667.996338 1385.748413,668.003601 1362.589478,668.003601 &#10;&#9;C1360.805908,668.003601 1359.022339,668.003662 1356.840454,668.003662 &#10;&#9;C1356.840454,671.973206 1356.840454,675.433105 1356.840454,678.893066 &#10;&#9;C1356.840332,694.554565 1356.878174,710.216125 1356.823730,725.877441 &#10;&#9;C1356.798096,733.261536 1353.999390,736.473206 1347.346558,736.522766 &#10;&#9;C1333.351929,736.626953 1319.355103,736.652100 1305.361084,736.512878 &#10;&#9;C1297.942261,736.439148 1295.179565,733.512573 1295.175537,726.065247 &#10;&#9;C1295.146240,671.418335 1295.159546,616.771423 1295.159912,562.124512 &#10;&#9;C1295.160034,557.994812 1295.697266,554.165710 1299.952637,551.994934 &#10;&#9;C1304.355957,549.748657 1307.464478,552.113464 1310.696899,554.635681 &#10;&#9;C1320.099365,561.972168 1329.570190,569.220947 1339.318848,576.694702 &#10;z" stroke="none" opacity="1.000000" fill="#D3BD5E"/>
</g>
</svg>